<svg xmlns="http://www.w3.org/2000/svg" width="173.515" height="108.706" viewBox="0 0 173.515 108.706"><defs><style>.a{fill:#9d8b61;}.b{fill:#4c0b36;}</style></defs><g transform="translate(770.613 -497.698)"><path class="a" d="M-759.755,760.466c-2.279,1.478-3.982,1.606-3.982,5.172,0,1.221.223,3.181,2.024,3.181a2.18,2.18,0,0,0,1.958-2.378Zm0-2.185c0-2.022,0-4.175-2.376-4.175a2.663,2.663,0,0,0-2.667,2.6,2.1,2.1,0,0,0,1.125,1.863,2.7,2.7,0,0,1-2.858,2.7,2.842,2.842,0,0,1-3.021-3.02c0-3.918,5.365-4.433,8.321-4.433,3.662,0,7.452,1.188,7.452,4.915v7.421c0,1.059,0,2.89,1.478,2.89a2.314,2.314,0,0,0,1.414-.513l.128.162a8.728,8.728,0,0,1-5.622,2.44c-1.831,0-3.052-1.381-3.341-3.534a6.3,6.3,0,0,1-5.944,3.534c-3.018,0-4.947-1.446-4.947-4.209,0-5.076,7.229-4.207,10.858-6.712Z" transform="translate(0 -182.003)"/><path class="a" d="M-691.364,750.551v-.227c1.7,0,1.736-.864,1.736-3.436v-7.87c0-1.317-.162-3.052-2.026-3.052a4.7,4.7,0,0,0-2.827,1.254v9.668c0,2.025.033,3.436,1.769,3.436v.227h-10.507v-.227c2.506,0,2.795-.641,2.795-4.078v-16c0-2.152-.448-3.021-3.179-2.378l-.065-.224,9.252-2.476-.1,11.759c3.179-2.6,5.14-3.471,7.1-3.471,2.6,0,3.727,1.447,3.727,4.723v8.064c0,3.438.291,4.078,2.8,4.078v.227Z" transform="translate(-47.572 -161.647)"/><path class="a" d="M-612.744,758.122c0-2.154-.032-3.308-2.408-2.955l-.034-.225,8.386-1.125v13.01c0,2.152.191,3.373,2.794,2.86l.032.225a22.771,22.771,0,0,1-5.879,1.22c-2.377,0-2.892-1.254-2.8-3.5-3.181,2.7-5.2,3.5-7.163,3.5-2.6,0-3.727-1.446-3.727-4.721v-8.288c0-2.154-.1-3.246-3.052-2.86l-.033-.226,9.028-1.22v11.758c0,1.317.16,3.051,2.024,3.051a4.7,4.7,0,0,0,2.826-1.253Z" transform="translate(-102.323 -182.003)"/><path class="a" d="M-544.593,728.609a3.482,3.482,0,0,1-3.471,3.5,3.5,3.5,0,0,1-3.468-3.5,3.468,3.468,0,0,1,3.468-3.438,3.427,3.427,0,0,1,3.471,3.438m-6.586,29.169c-2.121,0-4.948-.8-4.948-3.566a3.141,3.141,0,0,1,3.311-3.276,2.945,2.945,0,0,1,3.149,2.956,2.123,2.123,0,0,0-1.478,1.96,1.259,1.259,0,0,0,1.317,1.412c1.51,0,2.344-1.35,2.344-2.859a4.814,4.814,0,0,0-3.532-4.819V738.536c0-2.153-.451-3.019-3.181-2.376l-.064-.226,9.188-2.473v16.062c0,3.857-1.155,8.256-6.1,8.256" transform="translate(-152.418 -161.647)"/><path class="a" d="M-496.193,760.466c-2.281,1.478-3.984,1.606-3.984,5.172,0,1.221.226,3.181,2.025,3.181a2.18,2.18,0,0,0,1.959-2.378Zm0-2.185c0-2.022,0-4.175-2.379-4.175a2.661,2.661,0,0,0-2.666,2.6,2.1,2.1,0,0,0,1.125,1.863,2.7,2.7,0,0,1-2.86,2.7,2.843,2.843,0,0,1-3.02-3.02c0-3.918,5.366-4.433,8.319-4.433,3.665,0,7.455,1.188,7.455,4.915v7.421c0,1.059,0,2.89,1.477,2.89a2.316,2.316,0,0,0,1.415-.513l.129.162a8.735,8.735,0,0,1-5.622,2.44c-1.831,0-3.054-1.381-3.343-3.534a6.3,6.3,0,0,1-5.942,3.534c-3.021,0-4.947-1.446-4.947-4.209,0-5.076,7.228-4.207,10.859-6.712Z" transform="translate(-187.292 -182.003)"/><path class="a" d="M-435.667,764.222h.224a7.551,7.551,0,0,0,7.68,6.649c2.055,0,3.533-.995,3.533-2.248,0-3.5-11.437-3.117-11.437-9.444,0-3.953,4.5-5.367,7.839-5.367a13.618,13.618,0,0,1,3.951.61l2.121-.577.322,5.654h-.227c-.385-3.887-3.951-5.429-6.3-5.429-1.864,0-3.118,1-3.118,2.217,0,3.661,11.213,2.7,11.213,9.025,0,3.471-3.405,5.817-7.9,5.817a23.913,23.913,0,0,1-5.174-.674l-2.376.61Z" transform="translate(-238.019 -182)"/><path class="a" d="M-363.351,762.49c0-3.663,0-8.417-2.828-8.417-2.8,0-2.8,4.754-2.8,8.417,0,3.759,0,8.384,2.8,8.384,2.828,0,2.828-4.625,2.828-8.384m6.521,0c0,4.98-4.08,8.641-9.349,8.641-5.236,0-9.316-3.661-9.316-8.641,0-5.013,4.08-8.674,9.316-8.674,5.269,0,9.349,3.662,9.349,8.674" transform="translate(-280.779 -182.003)"/><path class="a" d="M-296.467,770.9v-.226c1.7,0,1.734-.864,1.734-3.436v-7.87c0-1.317-.16-3.052-2.023-3.052a4.7,4.7,0,0,0-2.828,1.254v9.668c0,2.025.032,3.436,1.768,3.436v.226h-10.5v-.226c2.5,0,2.793-.641,2.793-4.078v-7.711c0-2.153-.449-3.019-3.179-2.376l-.064-.225,9.252-2.475-.1,3.471c3.181-2.6,5.14-3.471,7.1-3.471,2.6,0,3.725,1.447,3.725,4.723V766.6c0,3.438.29,4.078,2.795,4.078v.226Z" transform="translate(-328.196 -182)"/><path class="a" d="M-225.621,764.222h.225a7.549,7.549,0,0,0,7.679,6.649c2.055,0,3.534-.995,3.534-2.248,0-3.5-11.437-3.117-11.437-9.444,0-3.953,4.5-5.367,7.839-5.367a13.614,13.614,0,0,1,3.951.61l2.121-.577.321,5.654h-.225c-.386-3.887-3.951-5.429-6.3-5.429-1.864,0-3.117,1-3.117,2.217,0,3.661,11.213,2.7,11.213,9.025,0,3.471-3.406,5.817-7.9,5.817a23.889,23.889,0,0,1-5.173-.674l-2.377.61Z" transform="translate(-387.282 -182)"/><path class="a" d="M-484.514,582.788c-3.132,1.906-3.233-1.979-3.233-1.979v-9.824c-.052-3.35-3.613-4.9-5.381-5.126a22.6,22.6,0,0,0-7.859.112c-3.435.7-5.582,3.493-4.6,6.055s4.471,2.286,5.481,1.321a2.888,2.888,0,0,0,.835-2.3,2.953,2.953,0,0,1-1.061-3.293c.675-2.1,5.615-2.875,5.809.645v4.651a38.525,38.525,0,0,1-5.317,2.067c-2.464.69-6.356,1.509-7.156,4.566-.828,3.16,2.187,6.839,6.791,5.908,4.047-.821,5.427-3.264,5.731-3.92.282,2.06,1.878,4.565,5.271,3.8a10.856,10.856,0,0,0,4.8-2.583s.062-.06.055-.113c-.008-.085-.174.014-.174.014m-10.3-1.134c-.588.824-1.833,2.117-3.265.957-1.992-1.615-1.229-6.45.464-7.492,1.55-.957,3.1-1.811,3.1-1.811v7.773c0,.05.006.1.01.153-.106.148-.27.373-.3.42" transform="translate(-187.237 -48.226)"/><path class="b" d="M-473.18,662.161a2.043,2.043,0,0,0-.358-1.092,2.04,2.04,0,0,0-.356,1.093c-.188-.272-.449-.266-.751-.249.291.282.372.88.715,1.159a.624.624,0,0,0,.333.151l.061,0a.6.6,0,0,0,.061,0,.642.642,0,0,0,.333-.152c.34-.279.419-.878.71-1.159-.3-.017-.562-.021-.749.25" transform="translate(-210.321 -116.095)"/><path class="b" d="M-530.96,624.887a1.1,1.1,0,0,0-.681.087,7.993,7.993,0,0,1-.718.385,2.272,2.272,0,0,1-.356.1,1.5,1.5,0,0,1-.986-.157,1.744,1.744,0,0,0,1.925.745,1.688,1.688,0,0,0-.273.909,1.756,1.756,0,0,0,.125.819,3.194,3.194,0,0,0,.308.536,1.718,1.718,0,0,1,.434-1.409c.262-.342.656-.548.794-.985a.839.839,0,0,0-.572-1.026" transform="translate(-168.354 -90.367)"/><path class="b" d="M-568.8,606.7c-.386-.094-.752-.54-1.18-.608a.632.632,0,0,0-.352.034c-.017.008-.034.015-.052.025a.468.468,0,0,0-.047.032.563.563,0,0,0-.2.277c-.141.385.1.907,0,1.272.257-.127.478-.245.5-.553a2.031,2.031,0,0,0,.849.719,1.875,1.875,0,0,0-.259-1.052.723.723,0,0,0,.75-.148" transform="translate(-142.079 -77.022)"/><path class="b" d="M-508.887,525.328a.983.983,0,0,0,.6-1,1.381,1.381,0,0,0,.74.784,1.084,1.084,0,0,0,.424-.975,1.212,1.212,0,0,0,.948.757s.005,0,.008,0a1.376,1.376,0,0,0-1.384-1.469,1.206,1.206,0,0,0-.321.031,1.414,1.414,0,0,0-.747.417,1.334,1.334,0,0,0-.271,1.448.023.023,0,0,0,0,.01" transform="translate(-185.908 -18.28)"/><path class="b" d="M-558.916,643.175a1.424,1.424,0,0,0-.482.551,1.049,1.049,0,0,0-.1.466.992.992,0,0,0,.091.393.885.885,0,0,0,.128.19,1,1,0,0,0,.514.328,1.359,1.359,0,0,0,.657-.034,1.345,1.345,0,0,0,.514-.3l.037-.035a2.232,2.232,0,0,0,.651-1.087,2.833,2.833,0,0,0,.078-.725,2.584,2.584,0,0,0-.082-.6c-.462.657-1.4.44-2.008.851" transform="translate(-150.023 -102.774)"/><path class="b" d="M-513.154,663.457a.874.874,0,0,1-.418-.188,1.385,1.385,0,0,1-.5.133,1.709,1.709,0,0,1,.017.555,1.3,1.3,0,0,0,.611.2,1.418,1.418,0,0,0,1.354-.735,1.528,1.528,0,0,1-1.063.036" transform="translate(-182.303 -117.658)"/><path class="b" d="M-517.791,659.68a1.694,1.694,0,0,0,1.1-.143,1.4,1.4,0,0,0,.751-.637,1.07,1.07,0,0,1-1.109-.266c-.479-.408-1.24-.567-1.453.026a.652.652,0,0,0,.067.579.989.989,0,0,0,.645.441" transform="translate(-179.126 -114.106)"/><path class="b" d="M-518.821,661a1,1,0,0,1-.732-.765.785.785,0,0,1,0-.266.771.771,0,0,0-.172.258.881.881,0,0,0,.063.764,4.884,4.884,0,0,0,.7.922.83.83,0,0,1,.215.568,1.556,1.556,0,0,0,.4-.561,1.648,1.648,0,0,0,.073-.854,2.768,2.768,0,0,1-.548-.065" transform="translate(-178.247 -115.313)"/><path class="b" d="M-559.414,593.981a1.421,1.421,0,0,0,1.353-.735,1.532,1.532,0,0,1-1.063.035.863.863,0,0,1-.417-.187,1.376,1.376,0,0,1-.5.131,1.712,1.712,0,0,1,.017.556,1.294,1.294,0,0,0,.612.2" transform="translate(-149.635 -67.79)"/><path class="b" d="M-563.809,589.419a1.689,1.689,0,0,0,1.1-.125,1.427,1.427,0,0,0,.75-.654,1.073,1.073,0,0,1-1.109-.266c-.479-.409-1.24-.568-1.453.025a.653.653,0,0,0,.067.579.986.986,0,0,0,.645.441" transform="translate(-146.426 -64.178)"/><path class="b" d="M-564.791,590.824a1,1,0,0,1-.733-.765.806.806,0,0,1,0-.266.784.784,0,0,0-.172.258.877.877,0,0,0,.064.764,4.881,4.881,0,0,0,.7.922.829.829,0,0,1,.214.567,1.552,1.552,0,0,0,.4-.561,1.644,1.644,0,0,0,.073-.854,2.768,2.768,0,0,1-.548-.065" transform="translate(-145.579 -65.445)"/><path class="b" d="M-493.73,500.823a1.385,1.385,0,0,1,.5-.125,1.706,1.706,0,0,1-.011-.555,1.307,1.307,0,0,0-.609-.209,1.422,1.422,0,0,0-1.362.718,1.535,1.535,0,0,1,1.063-.022.873.873,0,0,1,.415.193" transform="translate(-195.708 -1.585)"/><path class="b" d="M-491.132,503.181a1.7,1.7,0,0,0-1.1.128,1.411,1.411,0,0,0-.76.626,1.075,1.075,0,0,1,1.106.281c.474.414,1.232.585,1.453-.006a.656.656,0,0,0-.059-.581.99.99,0,0,0-.639-.449" transform="translate(-197.282 -3.867)"/><path class="b" d="M-487.216,498.268a.83.83,0,0,1-.207-.57,1.549,1.549,0,0,0-.408.555,1.643,1.643,0,0,0-.084.853,2.769,2.769,0,0,1,.546.072,1,1,0,0,1,.723.775.8.8,0,0,1-.008.266.82.82,0,0,0,.176-.255.885.885,0,0,0-.054-.766,4.846,4.846,0,0,0-.685-.93" transform="translate(-200.877 0)"/><path class="b" d="M-505.166,547.956a1.7,1.7,0,0,0,.24-.919,1.774,1.774,0,0,0-.156-.813,3.186,3.186,0,0,0-.327-.524,1.716,1.716,0,0,1-.383,1.425c-.249.35-.634.571-.756,1.013a.838.838,0,0,0,.609,1,1.1,1.1,0,0,0,.676-.112,7.909,7.909,0,0,1,.7-.411,2.25,2.25,0,0,1,.352-.11,1.5,1.5,0,0,1,.992.12,1.745,1.745,0,0,0-1.952-.673" transform="translate(-187.631 -34.111)"/><path class="b" d="M-417.117,625.455a2.273,2.273,0,0,1-.356-.1,8.022,8.022,0,0,1-.719-.385,1.1,1.1,0,0,0-.68-.087.838.838,0,0,0-.572,1.026c.138.437.53.643.793.984a1.718,1.718,0,0,1,.435,1.41,3.183,3.183,0,0,0,.308-.536,1.757,1.757,0,0,0,.126-.819,1.688,1.688,0,0,0-.273-.909,1.745,1.745,0,0,0,1.925-.745,1.5,1.5,0,0,1-.986.157" transform="translate(-249.524 -90.367)"/><path class="b" d="M-375.6,606.464a.561.561,0,0,0-.2-.278l-.049-.032c-.017-.01-.035-.017-.052-.025a.638.638,0,0,0-.353-.035c-.428.069-.795.514-1.179.608a.721.721,0,0,0,.749.148,1.884,1.884,0,0,0-.26,1.052,2.037,2.037,0,0,0,.85-.719c.017.308.239.426.5.553-.1-.365.139-.887,0-1.272" transform="translate(-279.405 -77.021)"/><path class="b" d="M-442.4,524.89a1.21,1.21,0,0,0,.948-.757,1.085,1.085,0,0,0,.424.975,1.376,1.376,0,0,0,.739-.784.984.984,0,0,0,.6,1,.028.028,0,0,0,0-.01,1.336,1.336,0,0,0-.271-1.448,1.421,1.421,0,0,0-.748-.417,1.217,1.217,0,0,0-.322-.031,1.376,1.376,0,0,0-1.383,1.469s0,0,.007,0" transform="translate(-233.226 -18.28)"/><path class="b" d="M-389.258,643.175c-.611-.411-1.546-.195-2.009-.851a2.6,2.6,0,0,0-.081.6,2.839,2.839,0,0,0,.078.725,2.234,2.234,0,0,0,.65,1.087l.038.035a1.339,1.339,0,0,0,.515.3,1.354,1.354,0,0,0,.656.034,1,1,0,0,0,.514-.328.846.846,0,0,0,.128-.19.994.994,0,0,0,.092-.393,1.047,1.047,0,0,0-.1-.466,1.423,1.423,0,0,0-.482-.551" transform="translate(-269.513 -102.774)"/><path class="b" d="M-432.91,663.269a.855.855,0,0,1-.418.188,1.529,1.529,0,0,1-1.063-.035,1.419,1.419,0,0,0,1.354.735,1.292,1.292,0,0,0,.612-.2,1.713,1.713,0,0,1,.018-.555,1.392,1.392,0,0,1-.5-.133" transform="translate(-238.926 -117.658)"/><path class="b" d="M-431.306,659.537a1.693,1.693,0,0,0,1.1.143.988.988,0,0,0,.645-.441.654.654,0,0,0,.067-.579c-.213-.593-.974-.434-1.452-.026a1.071,1.071,0,0,1-1.109.266,1.4,1.4,0,0,0,.751.637" transform="translate(-240.585 -114.106)"/><path class="b" d="M-425.829,659.97a.82.82,0,0,1,.005.266,1,1,0,0,1-.734.765,2.781,2.781,0,0,1-.548.065,1.647,1.647,0,0,0,.072.854,1.56,1.56,0,0,0,.4.561.829.829,0,0,1,.214-.567,4.879,4.879,0,0,0,.7-.922.882.882,0,0,0,.064-.764.783.783,0,0,0-.172-.258" transform="translate(-244.086 -115.314)"/><path class="b" d="M-386.94,593.093a.866.866,0,0,1-.417.188,1.536,1.536,0,0,1-1.063-.035,1.421,1.421,0,0,0,1.353.735,1.29,1.29,0,0,0,.612-.2,1.691,1.691,0,0,1,.017-.555,1.375,1.375,0,0,1-.5-.132" transform="translate(-271.594 -67.79)"/><path class="b" d="M-385.289,589.294a1.69,1.69,0,0,0,1.1.125.989.989,0,0,0,.644-.441.655.655,0,0,0,.067-.579c-.214-.593-.974-.433-1.452-.025a1.074,1.074,0,0,1-1.109.266,1.436,1.436,0,0,0,.752.654" transform="translate(-273.285 -64.178)"/><path class="b" d="M-379.751,590.815a.878.878,0,0,0,.063-.764.793.793,0,0,0-.172-.258.8.8,0,0,1,.005.267,1,1,0,0,1-.734.764,2.769,2.769,0,0,1-.548.065,1.652,1.652,0,0,0,.073.854,1.555,1.555,0,0,0,.4.561.827.827,0,0,1,.215-.567,4.952,4.952,0,0,0,.7-.922" transform="translate(-276.753 -65.445)"/><path class="b" d="M-452.634,499.935a1.3,1.3,0,0,0-.609.208,1.71,1.71,0,0,1-.01.556,1.387,1.387,0,0,1,.5.125.873.873,0,0,1,.415-.193,1.538,1.538,0,0,1,1.064.022,1.424,1.424,0,0,0-1.364-.718" transform="translate(-225.523 -1.585)"/><path class="b" d="M-455.767,503.308a1.7,1.7,0,0,0-1.1-.128.985.985,0,0,0-.638.449.655.655,0,0,0-.06.581c.221.591.98.42,1.453.006a1.075,1.075,0,0,1,1.105-.281,1.407,1.407,0,0,0-.76-.626" transform="translate(-222.429 -3.867)"/><path class="b" d="M-458.7,499.954a1,1,0,0,1,.723-.775,2.773,2.773,0,0,1,.547-.072,1.638,1.638,0,0,0-.085-.853,1.54,1.54,0,0,0-.407-.555.825.825,0,0,1-.207.57,4.852,4.852,0,0,0-.685.93.884.884,0,0,0-.053.765.789.789,0,0,0,.176.256.8.8,0,0,1-.009-.266" transform="translate(-221.485 -0.001)"/><path class="b" d="M-444.072,547.125a1.72,1.72,0,0,1-.381-1.425,3.115,3.115,0,0,0-.328.524,1.768,1.768,0,0,0-.156.813,1.687,1.687,0,0,0,.24.918,1.745,1.745,0,0,0-1.951.673,1.5,1.5,0,0,1,.992-.12,2.368,2.368,0,0,1,.352.11,7.881,7.881,0,0,1,.7.411,1.11,1.11,0,0,0,.677.112.839.839,0,0,0,.609-1c-.122-.442-.507-.663-.757-1.013" transform="translate(-230.216 -34.111)"/><path class="a" d="M-480.579,655.2a1.78,1.78,0,0,0-.095,1.234c.107.285.522.792.874.756a.984.984,0,0,1,1.425.182l.072.159.03-.2a1.692,1.692,0,0,0-.03-.359,1.563,1.563,0,0,0-.984-.993c-.411-.138-1.146-.3-1.292-.779" transform="translate(-205.984 -111.922)"/><path class="a" d="M-469.414,656.957a1.491,1.491,0,0,0-.028.357l.031.2.07-.161a.984.984,0,0,1,1.425-.184c.352.033.765-.474.871-.759a1.774,1.774,0,0,0-.1-1.232c-.143.476-.882.641-1.29.782a1.556,1.556,0,0,0-.981,1" transform="translate(-214.018 -111.91)"/><path class="a" d="M-473.2,654.385a1.48,1.48,0,0,1,.282-.463,1.468,1.468,0,0,1,.282.461,1.047,1.047,0,0,1,.267-.708,1.267,1.267,0,0,0,.043-1.586c-.421-.554-.585-.757-.594-.77-.01.013-.172.216-.594.771a1.274,1.274,0,0,0,.047,1.588,1.039,1.039,0,0,1,.268.707" transform="translate(-210.946 -109.167)"/><path class="a" d="M-468.317,663.012c.228-.01.393.214.583.309a1.274,1.274,0,0,0,.588.112,1.208,1.208,0,0,0,1.061-.781.544.544,0,0,1-.694.028c-.257-.164-.465-.411-.726-.568-.405-.248-1.127-.265-1.237.311a.829.829,0,0,1,.823.139c-.345.032-.4.45-.4.45" transform="translate(-214.516 -116.72)"/><path class="a" d="M-479.417,662.431c-.111-.578-.833-.558-1.238-.31-.259.158-.467.405-.723.571a.543.543,0,0,1-.693-.026,1.206,1.206,0,0,0,1.062.779,1.263,1.263,0,0,0,.588-.115c.191-.094.354-.321.583-.31,0,0-.055-.418-.4-.449a.831.831,0,0,1,.823-.14" transform="translate(-205.043 -116.725)"/><path class="a" d="M-531.326,557.847a4.117,4.117,0,0,1,2.531-.282c.485-.207.941-.374,1.466-.574a23,23,0,0,0,3.383-1.5.962.962,0,0,1-.378-.851,23.352,23.352,0,0,1-3.344,1.46,16.338,16.338,0,0,0-3.658,1.747" transform="translate(-170.042 -40.464)"/><path class="a" d="M-585.508,609.784a5.878,5.878,0,0,1-2.408-.105l-.033-.007a4.094,4.094,0,0,1-3.5-3.432,3.153,3.153,0,0,1,1.735-3.309,3.049,3.049,0,0,1,3.471.563.707.707,0,0,1,.2-.481.614.614,0,0,1,.5-.152,4.073,4.073,0,0,0-4.566-.8,4.112,4.112,0,0,0-2.29,4.243c.168,2.418,2.324,3.921,4.261,4.3a7.486,7.486,0,0,0,1.5.2,2.96,2.96,0,0,1,1.14-1.023" transform="translate(-126.628 -73.898)"/><path class="a" d="M-562.691,609.518a1.7,1.7,0,0,0-.546-1.045c-.233-.181-.834-.4-1.108-.206a.939.939,0,0,1-1.274.517l-.139-.1.077.177a1.577,1.577,0,0,0,.205.276,1.588,1.588,0,0,0,1.319.347c.412-.079,1.1-.29,1.467.031" transform="translate(-145.574 -78.519)"/><path class="a" d="M-571.416,611.741a1.446,1.446,0,0,0-.157-.3l-.128-.149.023.163a.928.928,0,0,1-1.088.812c-.309.136-.4.741-.339,1.022a1.721,1.721,0,0,0,.7.954c-.123-.453.4-.93.674-1.234a1.391,1.391,0,0,0,.31-1.264" transform="translate(-140.342 -80.719)"/><path class="a" d="M-566.208,613.5c.63.251.867.341.883.346,0-.015.033-.254.1-.9a1.229,1.229,0,0,0-.843-1.265,1.041,1.041,0,0,1-.58-.448,1.33,1.33,0,0,1,0,.505,1.484,1.484,0,0,1-.468-.243.96.96,0,0,1,.138.7,1.212,1.212,0,0,0,.768,1.307" transform="translate(-144.611 -80.678)"/><path class="a" d="M-575.262,610.325c-.186.114-.436.009-.641.021a1.244,1.244,0,0,0-.545.181,1.084,1.084,0,0,0-.485,1.128c.044-.25.334-.354.561-.345.3.014.6.116.891.123.46.013,1.068-.311.867-.83a.808.808,0,0,1-.752.272c.27-.187.1-.551.1-.551" transform="translate(-137.621 -80.035)"/><path class="a" d="M-565.433,605.2c.382.416.973.065,1.183-.326.133-.249.181-.546.309-.8a.52.52,0,0,1,.589-.3,1.217,1.217,0,0,0-1.275-.136,1.174,1.174,0,0,0-.431.366c-.109.166-.13.425-.325.523,0,0,.257.314.559.177a.764.764,0,0,1-.61.5" transform="translate(-145.805 -75.197)"/><path class="a" d="M-505.8,528a1.112,1.112,0,0,1-.849-.477,1.2,1.2,0,0,1-.5.715,1.481,1.481,0,0,1-.68-.509,1.111,1.111,0,0,1-.651.674,2.966,2.966,0,0,0,2.3,2.149,3.256,3.256,0,0,1,.154-1.2A2.283,2.283,0,0,0-505.8,528" transform="translate(-186.279 -21.195)"/><path class="a" d="M-518.96,513.656c.731-.42.552-1.231.664-1.863a5.089,5.089,0,0,1,.914-2.3,5.411,5.411,0,0,1,3.066-1.881c.131-.02.255-.033.348-.038a4.389,4.389,0,0,1,3.378,1.1,4.976,4.976,0,0,1,1.471,3.341,5.219,5.219,0,0,1-2,4.258,7.265,7.265,0,0,0,1.112-3.493,4,4,0,0,0-1.031-2.965,3.2,3.2,0,0,0-2.357-1.053,3.287,3.287,0,0,0-2.873,1.881,1.575,1.575,0,0,1,1.153-.084,2.31,2.31,0,0,1,1.72-.843,2.241,2.241,0,0,1,1.658.749,3.024,3.024,0,0,1,.778,2.246c-.152,2.092-1.069,3.671-3.243,5.383a1.959,1.959,0,0,1-.256.2,2.61,2.61,0,0,1-.128.893,1.879,1.879,0,0,1,.884.056l.125-.068c2.416-1.4,4.593-3.138,5.231-5.454l.008,0c.794-2.263.549-6.441-.944-8.235a2.609,2.609,0,0,1-.626.747,6.735,6.735,0,0,1,.977,3.043,5.246,5.246,0,0,0-1.012-1.306,5.3,5.3,0,0,0-4.084-1.357,4.874,4.874,0,0,0-.722.1,6.376,6.376,0,0,0-2.015.194,3.19,3.19,0,0,0-1.138.546c-.437.357-.665.857-.169,1.276a2.774,2.774,0,0,0-.875.262,1.492,1.492,0,0,0-.868,1.244,3.024,3.024,0,0,0,.629,1.67c.244.426.451,1-.132,1.246a.416.416,0,0,0-.108-.628.555.555,0,0,0-.818.364c-.162.709.718,1.086,1.282.763" transform="translate(-177.905 -5.541)"/><path class="a" d="M-569.142,573.8a1.557,1.557,0,0,1,.527-.8,3.177,3.177,0,0,1-.847-2.15,3.1,3.1,0,0,1,3.1-3.1h0a3.087,3.087,0,0,1,3.336,2.691,7.744,7.744,0,0,1,.293-1.644,3.654,3.654,0,0,0-3.63-2,4.057,4.057,0,0,0-4.053,4.051,4.072,4.072,0,0,0,1.274,2.951" transform="translate(-142.264 -49.105)"/><path class="a" d="M-562.491,619.325a1.611,1.611,0,0,1,1.053.345,1.718,1.718,0,0,1,.186-.681,1.85,1.85,0,0,1-.151-.346,11.568,11.568,0,0,1-.433-3.5,9.619,9.619,0,0,1,.859-3.824,2.537,2.537,0,0,1,.1-1.309,2.581,2.581,0,0,1-.829-.088,6.589,6.589,0,0,1-2.267-.323,3.765,3.765,0,0,1-2.777-4.416,2.821,2.821,0,0,1,1.265-1.769,2.82,2.82,0,0,1,2.146-.355,2.162,2.162,0,0,1,1.354.969,2.162,2.162,0,0,1,.272,1.644,1.647,1.647,0,0,1-1.976,1.231,1.1,1.1,0,0,1-.118-.034,1.284,1.284,0,0,0,.14-.047,1.394,1.394,0,0,0,.783-1.808,1.393,1.393,0,0,0-1.809-.782,1.393,1.393,0,0,0-.875,1.189,2.179,2.179,0,0,0,1.663,2.411,2.6,2.6,0,0,0,3.12-1.943,3.108,3.108,0,0,0-.392-2.364,3.1,3.1,0,0,0-1.948-1.394,3.764,3.764,0,0,0-2.865.474,3.765,3.765,0,0,0-1.69,2.361,4.755,4.755,0,0,0,3.421,5.542,9.943,9.943,0,0,0,2.564.369l-.122.192a10.254,10.254,0,0,0-.847,6.023c-.2-.425-.388-.86-.576-1.3a25.619,25.619,0,0,0-1.214-2.567,7.323,7.323,0,0,0-4.3-3.671,4.559,4.559,0,0,0-3.557.439,3.553,3.553,0,0,0-1.926,3.178,3.573,3.573,0,0,0,3.569,3.569,3.322,3.322,0,0,0,1.212-.213,1.12,1.12,0,0,1-.667-.794,2.188,2.188,0,0,1-.545.054,2.619,2.619,0,0,1-2.616-2.616,2.6,2.6,0,0,1,1.418-2.335l.024-.014a3.626,3.626,0,0,1,2.838-.348,6.479,6.479,0,0,1,3.72,3.218,24.59,24.59,0,0,1,1.167,2.474,18.152,18.152,0,0,0,1.492,2.972Z" transform="translate(-139.549 -74.144)"/><path class="a" d="M-520.078,668.709a5.28,5.28,0,0,1-6.637-.121,6.323,6.323,0,0,1-.842-.9.919.919,0,0,1-.858.478,8.014,8.014,0,0,0,1.069,1.141,6.191,6.191,0,0,0,4.082,1.482,5.741,5.741,0,0,0,3.819-1.364,3.6,3.6,0,0,0,.57-.594,4.167,4.167,0,0,0-.895-.419c-.071.074-.231.232-.309.3" transform="translate(-172.111 -120.796)"/><path class="a" d="M-512.76,651.54a4.971,4.971,0,0,0,.419-1.984,4.845,4.845,0,0,0-1.347-3.526,4.281,4.281,0,0,0-6,.038,3.476,3.476,0,0,0-.912,3.295l.075.2a1.552,1.552,0,0,1,.767-.914,2.4,2.4,0,0,1,.746-1.906,3.332,3.332,0,0,1,4.673-.014,3.928,3.928,0,0,1,1.046,2.818,3.9,3.9,0,0,1-.331,1.576,6.268,6.268,0,0,1,.865.421" transform="translate(-177.59 -104.549)"/><path class="a" d="M-543.188,553.8a6.169,6.169,0,0,0,1.858,1.636A6.168,6.168,0,0,1-542,547.6a4.547,4.547,0,0,1,1.465-1.347,3.1,3.1,0,0,1,.959-.357,2.727,2.727,0,0,1,1.121-.007,2.326,2.326,0,0,1,1.714,1.151,3.047,3.047,0,0,1,.207.444,2.883,2.883,0,0,1-.2,2.11,2.373,2.373,0,0,1-3.095.742c-.084-.039-.223-.091-.343-.145a1.589,1.589,0,0,0-1.15-.191.854.854,0,0,0-.593.554.737.737,0,0,0,.865.911c.636-.187.388-.938-.134-.709.217-.387.641-.121,1,.33a3.813,3.813,0,0,0,1.019.862c1.02.648,2.453.326,2.464-1.03,1.824.4,2.287-2.766.573-4.632a3.762,3.762,0,0,0-2.119-1.252,3.653,3.653,0,0,0-2.292.223,5.083,5.083,0,0,0-2.261,1.822,6.972,6.972,0,0,0-.541,1,6.832,6.832,0,0,1,.215-.692c.637-1.7,1.843-2.474,3.238-3.369a20.849,20.849,0,0,0,1.719-1.189c1.815-1.436,2.26-3.376,1.131-4.948a2.708,2.708,0,0,0-2.184-1.124,2.684,2.684,0,0,0-2.536,1.814,1.2,1.2,0,0,0-.042.168,1.38,1.38,0,0,0-.078.456,1.393,1.393,0,0,0,1.394,1.393,1.393,1.393,0,0,0,1.393-1.393,1.393,1.393,0,0,0-.875-1.293,1.7,1.7,0,0,1,.744-.173,1.734,1.734,0,0,1,1.4.721c.97,1.349.147,2.753-.945,3.617-.538.425-1.1.786-1.641,1.134-1.479.948-2.873,1.843-3.623,3.846a7.184,7.184,0,0,0,.845,6.751" transform="translate(-160.669 -27.756)"/><path class="a" d="M-577.974,593.667a1.137,1.137,0,0,1,.8,1.311,1.05,1.05,0,0,1-.538.771,3.16,3.16,0,0,1,1.018.369,2.019,2.019,0,0,0,.46-.976,1.489,1.489,0,0,0-1.348-1.787,1.653,1.653,0,0,0-1.126.412,1.086,1.086,0,0,1,.733-.1" transform="translate(-136.373 -67.976)"/><path class="a" d="M-523.08,636.614a1.662,1.662,0,0,1,1.883,1.168,1.772,1.772,0,0,0-1.815-1.864,2.119,2.119,0,0,0-2.169,2.135,2.24,2.24,0,0,0,1.753,2.172,2.682,2.682,0,0,1,.562-.69,1.568,1.568,0,0,1-1.48-1.482,1.446,1.446,0,0,1,1.267-1.439" transform="translate(-174.409 -98.222)"/><path class="a" d="M-533.387,660.014c.09-.45-.156-.82-.222-1.245a1.721,1.721,0,0,1,.3-1.445,3.254,3.254,0,0,0-.528.321,1.778,1.778,0,0,0-.5.658,1.7,1.7,0,0,0-.2.928,1.744,1.744,0,0,0-2.046-.272,1.5,1.5,0,0,1,.94.337,2.2,2.2,0,0,1,.265.255,8.011,8.011,0,0,1,.445.683,1.109,1.109,0,0,0,.556.4.839.839,0,0,0,.994-.624" transform="translate(-166.304 -113.433)"/><path class="a" d="M-430.94,557.565a4.111,4.111,0,0,1,2.529.282,16.323,16.323,0,0,0-3.657-1.747,23.318,23.318,0,0,1-3.344-1.46.963.963,0,0,1-.378.851,23.075,23.075,0,0,0,3.383,1.5c.524.2.981.367,1.466.574" transform="translate(-237.933 -40.464)"/><path class="a" d="M-368.47,602.063a4.073,4.073,0,0,0-4.566.8.612.612,0,0,1,.5.152.7.7,0,0,1,.2.481,3.051,3.051,0,0,1,3.472-.563,3.155,3.155,0,0,1,1.735,3.309,4.094,4.094,0,0,1-3.505,3.432l-.033.007a5.885,5.885,0,0,1-2.409.105,2.957,2.957,0,0,1,1.14,1.023,7.491,7.491,0,0,0,1.5-.2c1.937-.377,4.092-1.88,4.261-4.3a4.111,4.111,0,0,0-2.289-4.243" transform="translate(-282.496 -73.898)"/><path class="a" d="M-463.645,513.727c.638,2.316,2.814,4.056,5.23,5.453l.126.069a1.881,1.881,0,0,1,.884-.056,2.592,2.592,0,0,1-.129-.893,1.99,1.99,0,0,1-.256-.2c-2.175-1.712-3.091-3.29-3.243-5.383a3.02,3.02,0,0,1,.779-2.246,2.235,2.235,0,0,1,1.658-.75,2.313,2.313,0,0,1,1.721.844,1.57,1.57,0,0,1,1.151.084,3.288,3.288,0,0,0-2.872-1.881,3.2,3.2,0,0,0-2.357,1.054,4,4,0,0,0-1.03,2.965,7.265,7.265,0,0,0,1.112,3.493,5.221,5.221,0,0,1-2-4.258,4.975,4.975,0,0,1,1.469-3.341,4.389,4.389,0,0,1,3.379-1.1c.094,0,.217.018.349.038a5.411,5.411,0,0,1,3.065,1.881,5.078,5.078,0,0,1,.914,2.3c.112.633-.068,1.443.664,1.863.563.324,1.444-.055,1.282-.763a.555.555,0,0,0-.818-.364.417.417,0,0,0-.108.628c-.583-.245-.376-.82-.132-1.246a3.011,3.011,0,0,0,.628-1.67,1.486,1.486,0,0,0-.866-1.244,2.8,2.8,0,0,0-.875-.262c.5-.419.267-.919-.17-1.276a3.19,3.19,0,0,0-1.137-.546,6.375,6.375,0,0,0-2.014-.194,4.859,4.859,0,0,0-.723-.1,5.3,5.3,0,0,0-4.083,1.356,5.211,5.211,0,0,0-1.013,1.307,6.729,6.729,0,0,1,.978-3.044,2.622,2.622,0,0,1-.627-.747c-1.493,1.795-1.737,5.972-.944,8.235Z" transform="translate(-217.816 -5.541)"/><path class="a" d="M-386.452,609.518c.361-.321,1.054-.11,1.465-.031a1.589,1.589,0,0,0,1.319-.347,1.535,1.535,0,0,0,.2-.276l.078-.177-.14.1a.938.938,0,0,1-1.273-.517c-.274-.193-.875.025-1.108.206a1.691,1.691,0,0,0-.545,1.045" transform="translate(-272.993 -78.519)"/><path class="a" d="M-374.349,611.436a1.5,1.5,0,0,0-.157.3A1.393,1.393,0,0,0-374.2,613c.269.3.8.781.674,1.235a1.724,1.724,0,0,0,.706-.954c.057-.281-.03-.885-.339-1.022a.928.928,0,0,1-1.088-.812l.024-.164Z" transform="translate(-281.446 -80.719)"/><path class="a" d="M-379.626,611.735a1.339,1.339,0,0,1,0-.505,1.041,1.041,0,0,1-.581.448,1.229,1.229,0,0,0-.843,1.265c.069.646.1.886.1.9.015,0,.252-.095.883-.346a1.211,1.211,0,0,0,.767-1.307.963.963,0,0,1,.138-.7,1.483,1.483,0,0,1-.468.243" transform="translate(-276.828 -80.678)"/><path class="a" d="M-372.831,610.6c-.2.519.406.843.866.83.3-.006.6-.109.892-.123.227-.009.519.1.561.345a1.088,1.088,0,0,0-.484-1.128,1.256,1.256,0,0,0-.545-.181c-.2-.013-.455.093-.641-.021,0,0-.166.363.1.551a.807.807,0,0,1-.752-.272" transform="translate(-282.644 -80.034)"/><path class="a" d="M-381.344,604.529c-.194-.1-.216-.357-.325-.523a1.172,1.172,0,0,0-.431-.366,1.216,1.216,0,0,0-1.275.136.519.519,0,0,1,.589.3c.129.253.176.55.311.8.21.39.8.742,1.183.326a.763.763,0,0,1-.611-.5c.3.137.559-.177.559-.177" transform="translate(-275.179 -75.197)"/><path class="a" d="M-439.831,528.4a1.11,1.11,0,0,1-.651-.675,1.479,1.479,0,0,1-.68.51,1.2,1.2,0,0,1-.5-.716,1.115,1.115,0,0,1-.85.477,2.284,2.284,0,0,0,.231,1.355,3.233,3.233,0,0,1,.152,1.2,2.966,2.966,0,0,0,2.3-2.149" transform="translate(-233.123 -21.194)"/><path class="a" d="M-394.118,567.753h0a3.1,3.1,0,0,1,3.1,3.1,3.174,3.174,0,0,1-.848,2.15,1.561,1.561,0,0,1,.528.8,4.07,4.07,0,0,0,1.274-2.951,4.057,4.057,0,0,0-4.053-4.051,3.656,3.656,0,0,0-3.631,2,7.813,7.813,0,0,1,.294,1.644,3.087,3.087,0,0,1,3.336-2.691" transform="translate(-264.966 -49.105)"/><path class="a" d="M-402.54,610a4.559,4.559,0,0,0-3.557-.439,7.324,7.324,0,0,0-4.3,3.671,25.354,25.354,0,0,0-1.213,2.567c-.189.443-.376.878-.577,1.3a10.263,10.263,0,0,0-.848-6.023l-.121-.192a9.945,9.945,0,0,0,2.564-.369,4.754,4.754,0,0,0,3.421-5.542,3.764,3.764,0,0,0-1.69-2.361,3.764,3.764,0,0,0-2.865-.474,3.109,3.109,0,0,0-1.949,1.394,3.113,3.113,0,0,0-.391,2.364,2.6,2.6,0,0,0,3.121,1.943,2.179,2.179,0,0,0,1.663-2.412,1.393,1.393,0,0,0-.875-1.188,1.393,1.393,0,0,0-1.809.782,1.393,1.393,0,0,0,.781,1.808,1.205,1.205,0,0,0,.142.047,1.2,1.2,0,0,1-.118.034,1.648,1.648,0,0,1-1.977-1.231,2.17,2.17,0,0,1,.272-1.644,2.163,2.163,0,0,1,1.356-.969,2.821,2.821,0,0,1,2.145.355,2.82,2.82,0,0,1,1.265,1.769,3.765,3.765,0,0,1-2.777,4.416,6.587,6.587,0,0,1-2.267.323,2.58,2.58,0,0,1-.829.088,2.538,2.538,0,0,1,.1,1.309,9.622,9.622,0,0,1,.859,3.824,11.608,11.608,0,0,1-.432,3.5,1.927,1.927,0,0,1-.151.346,1.722,1.722,0,0,1,.186.681,1.61,1.61,0,0,1,1.053-.345l.134-.185a18.253,18.253,0,0,0,1.492-2.972,24.123,24.123,0,0,1,1.168-2.474,6.472,6.472,0,0,1,3.719-3.218,3.626,3.626,0,0,1,2.838.348l.025.014a2.605,2.605,0,0,1,1.418,2.335,2.62,2.62,0,0,1-2.616,2.616,2.2,2.2,0,0,1-.545-.054,1.12,1.12,0,0,1-.666.794,3.317,3.317,0,0,0,1.211.213,3.575,3.575,0,0,0,3.57-3.569A3.555,3.555,0,0,0-402.54,610" transform="translate(-253.31 -74.144)"/><path class="a" d="M-437.484,667.683a6.232,6.232,0,0,1-.842.9,5.28,5.28,0,0,1-6.638.12c-.078-.069-.237-.226-.309-.3a4.152,4.152,0,0,0-.894.419,3.59,3.59,0,0,0,.57.594,5.742,5.742,0,0,0,3.82,1.365A6.189,6.189,0,0,0-437.7,669.3a7.961,7.961,0,0,0,1.07-1.142.92.92,0,0,1-.858-.478" transform="translate(-230.559 -120.795)"/><path class="a" d="M-441.626,649.559l.074-.2a3.476,3.476,0,0,0-.911-3.294,4.281,4.281,0,0,0-6-.038,4.849,4.849,0,0,0-1.348,3.526,4.956,4.956,0,0,0,.42,1.984,6.229,6.229,0,0,1,.864-.42,3.943,3.943,0,0,1-.332-1.576,3.928,3.928,0,0,1,1.048-2.817,3.331,3.331,0,0,1,4.672.014,2.4,2.4,0,0,1,.747,1.906,1.549,1.549,0,0,1,.767.913" transform="translate(-227.967 -104.549)"/><path class="a" d="M-427.8,537.881c-1.128,1.571-.684,3.512,1.131,4.948a20.911,20.911,0,0,0,1.72,1.189c1.4.9,2.6,1.668,3.238,3.369a6.838,6.838,0,0,1,.216.692,6.975,6.975,0,0,0-.541-1,5.091,5.091,0,0,0-2.261-1.821,3.655,3.655,0,0,0-2.292-.223,3.756,3.756,0,0,0-2.119,1.252c-1.713,1.866-1.252,5.035.573,4.632.011,1.356,1.444,1.679,2.464,1.03a3.812,3.812,0,0,0,1.019-.862c.363-.45.786-.717,1-.33-.523-.23-.771.521-.134.709a.738.738,0,0,0,.865-.912.854.854,0,0,0-.594-.554,1.586,1.586,0,0,0-1.149.191c-.12.055-.259.107-.344.145a2.372,2.372,0,0,1-3.095-.742,2.878,2.878,0,0,1-.2-2.109,3.086,3.086,0,0,1,.207-.444,2.326,2.326,0,0,1,1.714-1.151,2.724,2.724,0,0,1,1.122.007,3.09,3.09,0,0,1,.959.357,4.537,4.537,0,0,1,1.465,1.347,6.169,6.169,0,0,1-.671,7.832,6.181,6.181,0,0,0,1.858-1.636,7.184,7.184,0,0,0,.846-6.751c-.75-2-2.145-2.9-3.622-3.845a19.841,19.841,0,0,1-1.642-1.134c-1.093-.864-1.915-2.268-.946-3.617a1.737,1.737,0,0,1,1.4-.721,1.691,1.691,0,0,1,.743.173,1.393,1.393,0,0,0-.874,1.293,1.394,1.394,0,0,0,1.394,1.393,1.393,1.393,0,0,0,1.393-1.393,1.408,1.408,0,0,0-.076-.453,1.144,1.144,0,0,0-.044-.171,2.683,2.683,0,0,0-2.535-1.813,2.712,2.712,0,0,0-2.185,1.124" transform="translate(-242.206 -27.756)"/><path class="a" d="M-371.52,595.142a2.007,2.007,0,0,0,.46.976,3.151,3.151,0,0,1,1.017-.369,1.048,1.048,0,0,1-.537-.771,1.135,1.135,0,0,1,.8-1.311,1.087,1.087,0,0,1,.734.1,1.651,1.651,0,0,0-1.125-.412,1.489,1.489,0,0,0-1.349,1.787" transform="translate(-283.585 -67.976)"/><path class="a" d="M-426.215,638.053a2.12,2.12,0,0,0-2.171-2.135,1.771,1.771,0,0,0-1.814,1.864,1.661,1.661,0,0,1,1.882-1.168,1.446,1.446,0,0,1,1.267,1.439,1.569,1.569,0,0,1-1.481,1.482,2.7,2.7,0,0,1,.563.69,2.24,2.24,0,0,0,1.753-2.172" transform="translate(-241.904 -98.222)"/><path class="a" d="M-490.09,667.316a1.8,1.8,0,0,1,1.11,1.178,4.391,4.391,0,0,0,.984.043,2.815,2.815,0,0,0-1.728-2.1,3.53,3.53,0,0,0-3.428.311c-.384.21-.752.444-1.11.669a10.084,10.084,0,0,1-2.158,1.134,2.29,2.29,0,0,1-2.489-.519,2.085,2.085,0,0,1-.424-1.057c0-.008,0-.017,0-.027l0-.108v-.008h0a.854.854,0,0,1-.433.149h-.065a.849.849,0,0,1-.433-.149h0v.017l0,.1c0,.008,0,.016,0,.024a2.083,2.083,0,0,1-.424,1.059,2.289,2.289,0,0,1-2.488.519,10.057,10.057,0,0,1-2.158-1.134c-.358-.225-.728-.459-1.111-.669a3.529,3.529,0,0,0-3.428-.311,2.816,2.816,0,0,0-1.73,2.1,4.39,4.39,0,0,0,.984-.043,1.8,1.8,0,0,1,1.111-1.178,2.591,2.591,0,0,1,2.6.266c.357.2.715.422,1.061.641a10.884,10.884,0,0,0,2.365,1.232,3.662,3.662,0,0,0,2.02.107,2.8,2.8,0,0,0,1.5-.923c.054-.067.107-.14.158-.216.051.076.1.149.159.216a2.794,2.794,0,0,0,1.5.923,3.664,3.664,0,0,0,2.02-.107,10.9,10.9,0,0,0,2.365-1.232c.346-.219.7-.444,1.062-.641a2.591,2.591,0,0,1,2.6-.266" transform="translate(-184.053 -119.688)"/><path class="a" d="M-415.114,659.231a1.706,1.706,0,0,0-.2-.928,1.786,1.786,0,0,0-.5-.658,3.243,3.243,0,0,0-.528-.321,1.721,1.721,0,0,1,.3,1.445c-.066.425-.312.795-.223,1.244a.84.84,0,0,0,.995.624,1.112,1.112,0,0,0,.555-.4,7.957,7.957,0,0,1,.445-.684,2.246,2.246,0,0,1,.265-.254,1.494,1.494,0,0,1,.94-.337,1.743,1.743,0,0,0-2.046.272" transform="translate(-251.752 -113.433)"/><path class="a" d="M-675.7,857.749a4.177,4.177,0,0,0,1.361.2c.361,0,.7-.142.7-.5,0-.225-.249-.378-.769-.5-.893-.213-1.32-.627-1.32-1.266,0-.734.609-1.095,1.337-1.095a3.173,3.173,0,0,1,1.355.237c0,.018-.13.621-.136.633a3.365,3.365,0,0,0-1.189-.2c-.314,0-.592.13-.592.438,0,.26.248.443.793.586.858.219,1.26.586,1.26,1.171,0,.769-.633,1.16-1.4,1.16a4.377,4.377,0,0,1-1.544-.225c.006-.012.142-.621.148-.633" transform="translate(-67.346 -253.605)"/><path class="a" d="M-661.063,854.843h.7v1.58h1.87v-1.58h.7v3.876h-.7v-1.651h-1.87v1.651h-.7Z" transform="translate(-77.849 -253.795)"/><path class="a" d="M-644.177,854.843h.758l1.574,3.876h-.745l-.32-.834h-1.781l-.319.834h-.74Zm-.266,2.391h1.284l-.639-1.674Z" transform="translate(-88.729 -253.795)"/><path class="a" d="M-626.218,857.9l1.012-3.053h.764l-1.391,3.876h-.74l-.923-3.071-.977,3.071h-.74l-1.391-3.876h.763l1.03,3.059.982-3.059h.68Z" transform="translate(-99.494 -253.795)"/><path class="a" d="M-605.253,854.843h.7v3.231h1.793v.645h-2.5Z" transform="translate(-117.508 -253.795)"/><path class="a" d="M-593.167,857.749a4.177,4.177,0,0,0,1.361.2c.361,0,.7-.142.7-.5,0-.225-.249-.378-.769-.5-.894-.213-1.32-.627-1.32-1.266,0-.734.61-1.095,1.338-1.095a3.173,3.173,0,0,1,1.355.237c0,.018-.13.621-.136.633a3.365,3.365,0,0,0-1.189-.2c-.314,0-.592.13-.592.438,0,.26.248.443.793.586.858.219,1.26.586,1.26,1.171,0,.769-.633,1.16-1.4,1.16a4.38,4.38,0,0,1-1.545-.225c.006-.012.143-.621.148-.633" transform="translate(-125.992 -253.605)"/><rect class="a" width="0.693" height="5.663" transform="translate(-713.213 600.741)"/><path class="a" d="M-558.924,857.749a4.174,4.174,0,0,0,1.361.2c.361,0,.7-.142.7-.5,0-.225-.249-.378-.769-.5-.894-.213-1.32-.627-1.32-1.266,0-.734.609-1.095,1.337-1.095a3.172,3.172,0,0,1,1.355.237c0,.018-.13.621-.136.633a3.366,3.366,0,0,0-1.189-.2c-.313,0-.592.13-.592.438,0,.26.249.443.793.586.858.219,1.26.586,1.26,1.171,0,.769-.633,1.16-1.4,1.16a4.375,4.375,0,0,1-1.544-.225c.005-.012.142-.621.148-.633" transform="translate(-150.325 -253.605)"/><path class="a" d="M-545.58,854.843h3.243v.645H-543.6v3.231h-.7v-3.231h-1.272Z" transform="translate(-159.913 -253.795)"/><path class="a" d="M-531.289,856.595a1.853,1.853,0,0,1,1.888-2.018,1.858,1.858,0,0,1,1.893,2.018,1.853,1.853,0,0,1-1.893,2.012,1.855,1.855,0,0,1-1.888-2.012m3.053,0a1.192,1.192,0,0,0-1.165-1.349,1.191,1.191,0,0,0-1.16,1.349,1.189,1.189,0,0,0,1.16,1.344,1.19,1.19,0,0,0,1.165-1.344" transform="translate(-170.069 -253.605)"/><path class="a" d="M-513.524,854.843h.7v3.231h1.793v.645h-2.5Z" transform="translate(-182.692 -253.795)"/><path class="a" d="M-500.666,854.843h2.716v.645h-2.012v.953h1.894v.645h-1.894v.988h2.03v.645h-2.734Z" transform="translate(-191.83 -253.795)"/><path class="a" d="M-487.107,857.749a4.176,4.176,0,0,0,1.361.2c.361,0,.7-.142.7-.5,0-.225-.248-.378-.769-.5-.894-.213-1.32-.627-1.32-1.266,0-.734.61-1.095,1.338-1.095a3.171,3.171,0,0,1,1.355.237c0,.018-.13.621-.136.633a3.367,3.367,0,0,0-1.189-.2c-.314,0-.592.13-.592.438,0,.26.248.443.793.586.858.219,1.26.586,1.26,1.171,0,.769-.633,1.16-1.4,1.16a4.376,4.376,0,0,1-1.544-.225c.005-.012.142-.621.148-.633" transform="translate(-201.36 -253.605)"/><rect class="a" width="0.693" height="5.663" transform="translate(-682.522 600.741)"/><path class="a" d="M-452.865,857.749a4.177,4.177,0,0,0,1.362.2c.361,0,.7-.142.7-.5,0-.225-.249-.378-.769-.5-.894-.213-1.32-.627-1.32-1.266,0-.734.609-1.095,1.337-1.095a3.173,3.173,0,0,1,1.355.237c0,.018-.13.621-.136.633a3.365,3.365,0,0,0-1.189-.2c-.314,0-.592.13-.592.438,0,.26.248.443.793.586.858.219,1.26.586,1.26,1.171,0,.769-.633,1.16-1.4,1.16a4.376,4.376,0,0,1-1.544-.225c.006-.012.142-.621.148-.633" transform="translate(-225.693 -253.605)"/><path class="a" d="M-435.833,858.382a3.063,3.063,0,0,1-1.219.225,1.85,1.85,0,0,1-1.918-2.012,1.824,1.824,0,0,1,1.852-2.018,3.228,3.228,0,0,1,1.3.231l-.136.627a3.125,3.125,0,0,0-1.124-.189c-.764,0-1.16.6-1.16,1.349a1.2,1.2,0,0,0,1.213,1.343,2.277,2.277,0,0,0,1.053-.2Z" transform="translate(-235.672 -253.605)"/><path class="a" d="M-423.555,854.843h.758l1.574,3.876h-.745l-.32-.834h-1.781l-.319.834h-.74Zm-.266,2.391h1.284l-.639-1.674Z" transform="translate(-245.507 -253.795)"/><path class="a" d="M-407.629,858.72v-3.876h1.8a1.179,1.179,0,0,1,1.26,1.254,1.336,1.336,0,0,1-.609,1.213,1.576,1.576,0,0,1,.3.468l.408.941h-.757l-.308-.734c-.094-.237-.242-.467-.479-.509h-.906v1.243Zm.7-3.231v1.338h.976a.624.624,0,0,0,.651-.693.594.594,0,0,0-.645-.645Z" transform="translate(-257.944 -253.795)"/><path class="a" d="M-393.184,854.843l1.166,3.083,1.16-3.083h.763l-1.556,3.876h-.746l-1.556-3.876Z" transform="translate(-267.662 -253.795)"/><path class="a" d="M-376.637,854.843h2.716v.645h-2.012v.953h1.894v.645h-1.894v.988h2.03v.645h-2.734Z" transform="translate(-279.967 -253.795)"/><path class="a" d="M-363.079,857.749a4.174,4.174,0,0,0,1.361.2c.361,0,.7-.142.7-.5,0-.225-.248-.378-.769-.5-.894-.213-1.32-.627-1.32-1.266,0-.734.61-1.095,1.338-1.095a3.173,3.173,0,0,1,1.355.237c0,.018-.13.621-.136.633a3.365,3.365,0,0,0-1.189-.2c-.313,0-.592.13-.592.438,0,.26.248.443.793.586.858.219,1.26.586,1.26,1.171,0,.769-.633,1.16-1.4,1.16a4.376,4.376,0,0,1-1.544-.225c.005-.012.142-.621.148-.633" transform="translate(-289.497 -253.605)"/><rect class="a" width="0.693" height="5.663" transform="translate(-646.631 600.741)"/><path class="a" d="M-328.837,857.749a4.178,4.178,0,0,0,1.362.2c.361,0,.7-.142.7-.5,0-.225-.249-.378-.769-.5-.894-.213-1.32-.627-1.32-1.266,0-.734.609-1.095,1.337-1.095a3.173,3.173,0,0,1,1.355.237c0,.018-.13.621-.136.633a3.365,3.365,0,0,0-1.189-.2c-.314,0-.592.13-.592.438,0,.26.249.443.793.586.858.219,1.26.586,1.26,1.171,0,.769-.633,1.16-1.4,1.16a4.375,4.375,0,0,1-1.544-.225c.006-.012.142-.621.148-.633" transform="translate(-313.83 -253.605)"/><path class="a" d="M-314.326,854.843h.757l1.574,3.876h-.745l-.32-.834h-1.781l-.319.834h-.74Zm-.266,2.391h1.284l-.639-1.674Z" transform="translate(-323.128 -253.795)"/><path class="a" d="M-298.4,858.72v-3.876h1.8a1.179,1.179,0,0,1,1.261,1.254,1.336,1.336,0,0,1-.609,1.213,1.569,1.569,0,0,1,.3.468l.408.941h-.757l-.308-.734c-.095-.237-.243-.467-.479-.509h-.906v1.243Zm.7-3.231v1.338h.977a.624.624,0,0,0,.651-.693.594.594,0,0,0-.645-.645Z" transform="translate(-335.563 -253.795)"/><rect class="a" width="0.704" height="3.876" transform="translate(-629.481 601.049)"/><path class="a" d="M-275.807,857.749a4.179,4.179,0,0,0,1.362.2c.361,0,.7-.142.7-.5,0-.225-.249-.378-.769-.5-.894-.213-1.32-.627-1.32-1.266,0-.734.609-1.095,1.338-1.095a3.172,3.172,0,0,1,1.355.237c0,.018-.13.621-.136.633a3.365,3.365,0,0,0-1.189-.2c-.314,0-.592.13-.592.438,0,.26.248.443.793.586.858.219,1.26.586,1.26,1.171,0,.769-.633,1.16-1.4,1.16a4.377,4.377,0,0,1-1.544-.225c.006-.012.142-.621.148-.633" transform="translate(-351.514 -253.605)"/></g></svg>